<svg xmlns="http://www.w3.org/2000/svg" xmlns:xlink="http://www.w3.org/1999/xlink" width="200" zoomAndPan="magnify" viewBox="0 0 150 36.000001" height="48" preserveAspectRatio="xMidYMid meet" version="1.0"><defs><g/><clipPath id="def7a77459"><path d="M 90 0 L 145 0 L 145 35.027344 L 90 35.027344 Z M 90 0 " clip-rule="nonzero"/></clipPath><clipPath id="7b1a0a4562"><rect x="0" width="55" y="0" height="36"/></clipPath><clipPath id="bbfb53c0d6"><path d="M 5 0 L 65 0 L 65 35.027344 L 5 35.027344 Z M 5 0 " clip-rule="nonzero"/></clipPath><clipPath id="09f6c945e9"><rect x="0" width="60" y="0" height="36"/></clipPath><clipPath id="7c3c6e5d41"><path d="M 70 3 L 79 3 L 79 9 L 70 9 Z M 70 3 " clip-rule="nonzero"/></clipPath><clipPath id="a6d0bd6b5c"><path d="M 59.234375 -0.507812 L 90.609375 -0.289062 L 90.359375 35.464844 L 58.984375 35.246094 Z M 59.234375 -0.507812 " clip-rule="nonzero"/></clipPath><clipPath id="777e7d7ae2"><path d="M 51.253906 -6.398438 L 98.683594 -6.066406 L 98.351562 41.363281 L 50.921875 41.03125 Z M 51.253906 -6.398438 " clip-rule="nonzero"/></clipPath><clipPath id="9f9b0cc223"><path d="M 70 3 L 80 3 L 80 9 L 70 9 Z M 70 3 " clip-rule="nonzero"/></clipPath><clipPath id="9c65a86778"><path d="M 59.234375 -0.507812 L 90.609375 -0.289062 L 90.359375 35.464844 L 58.984375 35.246094 Z M 59.234375 -0.507812 " clip-rule="nonzero"/></clipPath><clipPath id="6c58398967"><path d="M 51.253906 -6.398438 L 98.683594 -6.066406 L 98.351562 41.363281 L 50.921875 41.03125 Z M 51.253906 -6.398438 " clip-rule="nonzero"/></clipPath><clipPath id="1682ab0181"><path d="M 70 5 L 75 5 L 75 13 L 70 13 Z M 70 5 " clip-rule="nonzero"/></clipPath><clipPath id="7373306d83"><path d="M 59.234375 -0.507812 L 90.609375 -0.289062 L 90.359375 35.464844 L 58.984375 35.246094 Z M 59.234375 -0.507812 " clip-rule="nonzero"/></clipPath><clipPath id="a935dd29a8"><path d="M 51.253906 -6.398438 L 98.683594 -6.066406 L 98.351562 41.363281 L 50.921875 41.03125 Z M 51.253906 -6.398438 " clip-rule="nonzero"/></clipPath><clipPath id="10afe56aa9"><path d="M 70 5 L 76 5 L 76 13 L 70 13 Z M 70 5 " clip-rule="nonzero"/></clipPath><clipPath id="113957bacb"><path d="M 59.234375 -0.507812 L 90.609375 -0.289062 L 90.359375 35.464844 L 58.984375 35.246094 Z M 59.234375 -0.507812 " clip-rule="nonzero"/></clipPath><clipPath id="d2557857e0"><path d="M 51.253906 -6.398438 L 98.683594 -6.066406 L 98.351562 41.363281 L 50.921875 41.03125 Z M 51.253906 -6.398438 " clip-rule="nonzero"/></clipPath><clipPath id="b28c15a8ae"><path d="M 74 5 L 79 5 L 79 13 L 74 13 Z M 74 5 " clip-rule="nonzero"/></clipPath><clipPath id="35d6f4dddf"><path d="M 59.234375 -0.507812 L 90.609375 -0.289062 L 90.359375 35.464844 L 58.984375 35.246094 Z M 59.234375 -0.507812 " clip-rule="nonzero"/></clipPath><clipPath id="cc975aa1b3"><path d="M 51.253906 -6.398438 L 98.683594 -6.066406 L 98.351562 41.363281 L 50.921875 41.03125 Z M 51.253906 -6.398438 " clip-rule="nonzero"/></clipPath><clipPath id="9104c520ae"><path d="M 74 5 L 80 5 L 80 13 L 74 13 Z M 74 5 " clip-rule="nonzero"/></clipPath><clipPath id="72187895d7"><path d="M 59.234375 -0.507812 L 90.609375 -0.289062 L 90.359375 35.464844 L 58.984375 35.246094 Z M 59.234375 -0.507812 " clip-rule="nonzero"/></clipPath><clipPath id="0fa123cdca"><path d="M 51.253906 -6.398438 L 98.683594 -6.066406 L 98.351562 41.363281 L 50.921875 41.03125 Z M 51.253906 -6.398438 " clip-rule="nonzero"/></clipPath><clipPath id="69f6a3cd2a"><path d="M 69 13 L 75 13 L 75 22 L 69 22 Z M 69 13 " clip-rule="nonzero"/></clipPath><clipPath id="476a3bf300"><path d="M 59.234375 -0.507812 L 90.609375 -0.289062 L 90.359375 35.464844 L 58.984375 35.246094 Z M 59.234375 -0.507812 " clip-rule="nonzero"/></clipPath><clipPath id="941ac141cd"><path d="M 51.253906 -6.398438 L 98.683594 -6.066406 L 98.351562 41.363281 L 50.921875 41.03125 Z M 51.253906 -6.398438 " clip-rule="nonzero"/></clipPath><clipPath id="9909aa9e4e"><path d="M 65 11 L 74 11 L 74 22 L 65 22 Z M 65 11 " clip-rule="nonzero"/></clipPath><clipPath id="9a1bebcb6d"><path d="M 59.234375 -0.507812 L 90.609375 -0.289062 L 90.359375 35.464844 L 58.984375 35.246094 Z M 59.234375 -0.507812 " clip-rule="nonzero"/></clipPath><clipPath id="dd1bd6e343"><path d="M 51.253906 -6.398438 L 98.683594 -6.066406 L 98.351562 41.363281 L 50.921875 41.03125 Z M 51.253906 -6.398438 " clip-rule="nonzero"/></clipPath><clipPath id="33fdc01449"><path d="M 69 11 L 75 11 L 75 14 L 69 14 Z M 69 11 " clip-rule="nonzero"/></clipPath><clipPath id="2fc9006ffb"><path d="M 59.234375 -0.507812 L 90.609375 -0.289062 L 90.359375 35.464844 L 58.984375 35.246094 Z M 59.234375 -0.507812 " clip-rule="nonzero"/></clipPath><clipPath id="49adb4d331"><path d="M 51.253906 -6.398438 L 98.683594 -6.066406 L 98.351562 41.363281 L 50.921875 41.03125 Z M 51.253906 -6.398438 " clip-rule="nonzero"/></clipPath><clipPath id="76b733f937"><path d="M 69 10 L 75 10 L 75 15 L 69 15 Z M 69 10 " clip-rule="nonzero"/></clipPath><clipPath id="9a7648eaa8"><path d="M 59.234375 -0.507812 L 90.609375 -0.289062 L 90.359375 35.464844 L 58.984375 35.246094 Z M 59.234375 -0.507812 " clip-rule="nonzero"/></clipPath><clipPath id="1ce5abe985"><path d="M 51.253906 -6.398438 L 98.683594 -6.066406 L 98.351562 41.363281 L 50.921875 41.03125 Z M 51.253906 -6.398438 " clip-rule="nonzero"/></clipPath><clipPath id="ee57febde9"><path d="M 65 19 L 70 19 L 70 27 L 65 27 Z M 65 19 " clip-rule="nonzero"/></clipPath><clipPath id="78345aa220"><path d="M 59.234375 -0.507812 L 90.609375 -0.289062 L 90.359375 35.464844 L 58.984375 35.246094 Z M 59.234375 -0.507812 " clip-rule="nonzero"/></clipPath><clipPath id="c482a18723"><path d="M 51.253906 -6.398438 L 98.683594 -6.066406 L 98.351562 41.363281 L 50.921875 41.03125 Z M 51.253906 -6.398438 " clip-rule="nonzero"/></clipPath><clipPath id="2ce77146e6"><path d="M 75 13 L 80 13 L 80 22 L 75 22 Z M 75 13 " clip-rule="nonzero"/></clipPath><clipPath id="7145bc741e"><path d="M 59.234375 -0.507812 L 90.609375 -0.289062 L 90.359375 35.464844 L 58.984375 35.246094 Z M 59.234375 -0.507812 " clip-rule="nonzero"/></clipPath><clipPath id="c60f6f9943"><path d="M 51.253906 -6.398438 L 98.683594 -6.066406 L 98.351562 41.363281 L 50.921875 41.03125 Z M 51.253906 -6.398438 " clip-rule="nonzero"/></clipPath><clipPath id="6f1f383b1e"><path d="M 75 13 L 81 13 L 81 22 L 75 22 Z M 75 13 " clip-rule="nonzero"/></clipPath><clipPath id="ec706cb49f"><path d="M 59.234375 -0.507812 L 90.609375 -0.289062 L 90.359375 35.464844 L 58.984375 35.246094 Z M 59.234375 -0.507812 " clip-rule="nonzero"/></clipPath><clipPath id="cfa002efc6"><path d="M 51.253906 -6.398438 L 98.683594 -6.066406 L 98.351562 41.363281 L 50.921875 41.03125 Z M 51.253906 -6.398438 " clip-rule="nonzero"/></clipPath><clipPath id="025877c3a7"><path d="M 76 11 L 84 11 L 84 22 L 76 22 Z M 76 11 " clip-rule="nonzero"/></clipPath><clipPath id="7b93772acc"><path d="M 59.234375 -0.507812 L 90.609375 -0.289062 L 90.359375 35.464844 L 58.984375 35.246094 Z M 59.234375 -0.507812 " clip-rule="nonzero"/></clipPath><clipPath id="84fb3a5083"><path d="M 51.253906 -6.398438 L 98.683594 -6.066406 L 98.351562 41.363281 L 50.921875 41.03125 Z M 51.253906 -6.398438 " clip-rule="nonzero"/></clipPath><clipPath id="370bff9329"><path d="M 75 11 L 85 11 L 85 22 L 75 22 Z M 75 11 " clip-rule="nonzero"/></clipPath><clipPath id="bd999f8970"><path d="M 59.234375 -0.507812 L 90.609375 -0.289062 L 90.359375 35.464844 L 58.984375 35.246094 Z M 59.234375 -0.507812 " clip-rule="nonzero"/></clipPath><clipPath id="acaa2f036a"><path d="M 51.253906 -6.398438 L 98.683594 -6.066406 L 98.351562 41.363281 L 50.921875 41.03125 Z M 51.253906 -6.398438 " clip-rule="nonzero"/></clipPath><clipPath id="892697e9da"><path d="M 75 11 L 80 11 L 80 14 L 75 14 Z M 75 11 " clip-rule="nonzero"/></clipPath><clipPath id="5060448043"><path d="M 59.234375 -0.507812 L 90.609375 -0.289062 L 90.359375 35.464844 L 58.984375 35.246094 Z M 59.234375 -0.507812 " clip-rule="nonzero"/></clipPath><clipPath id="ef27acdb8c"><path d="M 51.253906 -6.398438 L 98.683594 -6.066406 L 98.351562 41.363281 L 50.921875 41.03125 Z M 51.253906 -6.398438 " clip-rule="nonzero"/></clipPath><clipPath id="d9b5cbfc25"><path d="M 75 10 L 80 10 L 80 15 L 75 15 Z M 75 10 " clip-rule="nonzero"/></clipPath><clipPath id="59494f62d6"><path d="M 59.234375 -0.507812 L 90.609375 -0.289062 L 90.359375 35.464844 L 58.984375 35.246094 Z M 59.234375 -0.507812 " clip-rule="nonzero"/></clipPath><clipPath id="8d0d1bed07"><path d="M 51.253906 -6.398438 L 98.683594 -6.066406 L 98.351562 41.363281 L 50.921875 41.03125 Z M 51.253906 -6.398438 " clip-rule="nonzero"/></clipPath><clipPath id="c668cb1295"><path d="M 79 19 L 84 19 L 84 27 L 79 27 Z M 79 19 " clip-rule="nonzero"/></clipPath><clipPath id="9cd702c6f1"><path d="M 59.234375 -0.507812 L 90.609375 -0.289062 L 90.359375 35.464844 L 58.984375 35.246094 Z M 59.234375 -0.507812 " clip-rule="nonzero"/></clipPath><clipPath id="197f1c4eca"><path d="M 51.253906 -6.398438 L 98.683594 -6.066406 L 98.351562 41.363281 L 50.921875 41.03125 Z M 51.253906 -6.398438 " clip-rule="nonzero"/></clipPath><clipPath id="9909a3e638"><path d="M 79 19 L 85 19 L 85 27 L 79 27 Z M 79 19 " clip-rule="nonzero"/></clipPath><clipPath id="7d570b27ef"><path d="M 59.234375 -0.507812 L 90.609375 -0.289062 L 90.359375 35.464844 L 58.984375 35.246094 Z M 59.234375 -0.507812 " clip-rule="nonzero"/></clipPath><clipPath id="b8b2a21ad7"><path d="M 51.253906 -6.398438 L 98.683594 -6.066406 L 98.351562 41.363281 L 50.921875 41.03125 Z M 51.253906 -6.398438 " clip-rule="nonzero"/></clipPath><clipPath id="d4ac0b1971"><path d="M 70 19 L 80 19 L 80 25 L 70 25 Z M 70 19 " clip-rule="nonzero"/></clipPath><clipPath id="e0cfe86af5"><path d="M 59.234375 -0.507812 L 90.609375 -0.289062 L 90.359375 35.464844 L 58.984375 35.246094 Z M 59.234375 -0.507812 " clip-rule="nonzero"/></clipPath><clipPath id="7a686d47f7"><path d="M 51.253906 -6.398438 L 98.683594 -6.066406 L 98.351562 41.363281 L 50.921875 41.03125 Z M 51.253906 -6.398438 " clip-rule="nonzero"/></clipPath><clipPath id="f41deba5f3"><path d="M 70 22 L 75 22 L 75 30 L 70 30 Z M 70 22 " clip-rule="nonzero"/></clipPath><clipPath id="4c0961233f"><path d="M 59.234375 -0.507812 L 90.609375 -0.289062 L 90.359375 35.464844 L 58.984375 35.246094 Z M 59.234375 -0.507812 " clip-rule="nonzero"/></clipPath><clipPath id="5558ed63ad"><path d="M 51.253906 -6.398438 L 98.683594 -6.066406 L 98.351562 41.363281 L 50.921875 41.03125 Z M 51.253906 -6.398438 " clip-rule="nonzero"/></clipPath><clipPath id="8e39c4c15b"><path d="M 70 21 L 75 21 L 75 30 L 70 30 Z M 70 21 " clip-rule="nonzero"/></clipPath><clipPath id="932d3a445d"><path d="M 59.234375 -0.507812 L 90.609375 -0.289062 L 90.359375 35.464844 L 58.984375 35.246094 Z M 59.234375 -0.507812 " clip-rule="nonzero"/></clipPath><clipPath id="b4e4493959"><path d="M 51.253906 -6.398438 L 98.683594 -6.066406 L 98.351562 41.363281 L 50.921875 41.03125 Z M 51.253906 -6.398438 " clip-rule="nonzero"/></clipPath><clipPath id="f52d0bf7de"><path d="M 74 22 L 80 22 L 80 30 L 74 30 Z M 74 22 " clip-rule="nonzero"/></clipPath><clipPath id="c65757a6e2"><path d="M 59.234375 -0.507812 L 90.609375 -0.289062 L 90.359375 35.464844 L 58.984375 35.246094 Z M 59.234375 -0.507812 " clip-rule="nonzero"/></clipPath><clipPath id="b41119caa5"><path d="M 51.253906 -6.398438 L 98.683594 -6.066406 L 98.351562 41.363281 L 50.921875 41.03125 Z M 51.253906 -6.398438 " clip-rule="nonzero"/></clipPath><clipPath id="35b79434f1"><path d="M 74 21 L 80 21 L 80 30 L 74 30 Z M 74 21 " clip-rule="nonzero"/></clipPath><clipPath id="dd8e2a7522"><path d="M 59.234375 -0.507812 L 90.609375 -0.289062 L 90.359375 35.464844 L 58.984375 35.246094 Z M 59.234375 -0.507812 " clip-rule="nonzero"/></clipPath><clipPath id="748fdc0293"><path d="M 51.253906 -6.398438 L 98.683594 -6.066406 L 98.351562 41.363281 L 50.921875 41.03125 Z M 51.253906 -6.398438 " clip-rule="nonzero"/></clipPath><clipPath id="6a7700ba4a"><path d="M 61 24 L 70 24 L 70 29 L 61 29 Z M 61 24 " clip-rule="nonzero"/></clipPath><clipPath id="52f40be785"><path d="M 59.234375 -0.507812 L 90.609375 -0.289062 L 90.359375 35.464844 L 58.984375 35.246094 Z M 59.234375 -0.507812 " clip-rule="nonzero"/></clipPath><clipPath id="dd63803ce1"><path d="M 51.253906 -6.398438 L 98.683594 -6.066406 L 98.351562 41.363281 L 50.921875 41.03125 Z M 51.253906 -6.398438 " clip-rule="nonzero"/></clipPath><clipPath id="94e8c091cc"><path d="M 61 24 L 70 24 L 70 30 L 61 30 Z M 61 24 " clip-rule="nonzero"/></clipPath><clipPath id="2a7d00f1d6"><path d="M 59.234375 -0.507812 L 90.609375 -0.289062 L 90.359375 35.464844 L 58.984375 35.246094 Z M 59.234375 -0.507812 " clip-rule="nonzero"/></clipPath><clipPath id="47a687b4c0"><path d="M 51.253906 -6.398438 L 98.683594 -6.066406 L 98.351562 41.363281 L 50.921875 41.03125 Z M 51.253906 -6.398438 " clip-rule="nonzero"/></clipPath><clipPath id="2297f03f71"><path d="M 61 26 L 66 26 L 66 34 L 61 34 Z M 61 26 " clip-rule="nonzero"/></clipPath><clipPath id="30e5346d23"><path d="M 59.234375 -0.507812 L 90.609375 -0.289062 L 90.359375 35.464844 L 58.984375 35.246094 Z M 59.234375 -0.507812 " clip-rule="nonzero"/></clipPath><clipPath id="51c4517afa"><path d="M 51.253906 -6.398438 L 98.683594 -6.066406 L 98.351562 41.363281 L 50.921875 41.03125 Z M 51.253906 -6.398438 " clip-rule="nonzero"/></clipPath><clipPath id="c8ef4c9abf"><path d="M 65 26 L 70 26 L 70 34 L 65 34 Z M 65 26 " clip-rule="nonzero"/></clipPath><clipPath id="b93c5e8234"><path d="M 59.234375 -0.507812 L 90.609375 -0.289062 L 90.359375 35.464844 L 58.984375 35.246094 Z M 59.234375 -0.507812 " clip-rule="nonzero"/></clipPath><clipPath id="6b85b1173e"><path d="M 51.253906 -6.398438 L 98.683594 -6.066406 L 98.351562 41.363281 L 50.921875 41.03125 Z M 51.253906 -6.398438 " clip-rule="nonzero"/></clipPath><clipPath id="956ac1d0b7"><path d="M 80 24 L 89 24 L 89 30 L 80 30 Z M 80 24 " clip-rule="nonzero"/></clipPath><clipPath id="c2f5a564cb"><path d="M 59.234375 -0.507812 L 90.609375 -0.289062 L 90.359375 35.464844 L 58.984375 35.246094 Z M 59.234375 -0.507812 " clip-rule="nonzero"/></clipPath><clipPath id="09f6535bdb"><path d="M 51.253906 -6.398438 L 98.683594 -6.066406 L 98.351562 41.363281 L 50.921875 41.03125 Z M 51.253906 -6.398438 " clip-rule="nonzero"/></clipPath><clipPath id="b143171494"><path d="M 80 26 L 85 26 L 85 34 L 80 34 Z M 80 26 " clip-rule="nonzero"/></clipPath><clipPath id="697c17313b"><path d="M 59.234375 -0.507812 L 90.609375 -0.289062 L 90.359375 35.464844 L 58.984375 35.246094 Z M 59.234375 -0.507812 " clip-rule="nonzero"/></clipPath><clipPath id="dc162bb21e"><path d="M 51.253906 -6.398438 L 98.683594 -6.066406 L 98.351562 41.363281 L 50.921875 41.03125 Z M 51.253906 -6.398438 " clip-rule="nonzero"/></clipPath><clipPath id="db29edeba3"><path d="M 84 26 L 89 26 L 89 34 L 84 34 Z M 84 26 " clip-rule="nonzero"/></clipPath><clipPath id="5565f269d2"><path d="M 59.234375 -0.507812 L 90.609375 -0.289062 L 90.359375 35.464844 L 58.984375 35.246094 Z M 59.234375 -0.507812 " clip-rule="nonzero"/></clipPath><clipPath id="1dbae48dfa"><path d="M 51.253906 -6.398438 L 98.683594 -6.066406 L 98.351562 41.363281 L 50.921875 41.03125 Z M 51.253906 -6.398438 " clip-rule="nonzero"/></clipPath></defs><g clip-path="url(#def7a77459)"><g transform="matrix(1, 0, 0, 1, 90, 0.000000000000010582)"><g clip-path="url(#7b1a0a4562)"><g fill="#151f4f" fill-opacity="1"><g transform="translate(0.538255, 34.158965)"><g><path d="M 2.34375 -32.296875 L 13.90625 -32.296875 C 17.007812 -32.296875 19.539062 -31.46875 21.5 -29.8125 C 23.457031 -28.15625 24.4375 -25.785156 24.4375 -22.703125 C 24.4375 -20.328125 23.84375 -18.335938 22.65625 -16.734375 C 21.46875 -15.128906 19.851562 -14.003906 17.8125 -13.359375 L 28.9375 0 L 19.578125 0 L 9.703125 -12.765625 L 9.703125 0 L 2.34375 0 Z M 9.703125 -17.96875 L 10.578125 -17.96875 C 11.253906 -17.96875 11.828125 -17.976562 12.296875 -18 C 12.765625 -18.03125 13.296875 -18.125 13.890625 -18.28125 C 14.492188 -18.4375 14.976562 -18.65625 15.34375 -18.9375 C 15.707031 -19.226562 16.019531 -19.648438 16.28125 -20.203125 C 16.550781 -20.753906 16.6875 -21.421875 16.6875 -22.203125 C 16.6875 -22.984375 16.550781 -23.644531 16.28125 -24.1875 C 16.019531 -24.738281 15.707031 -25.15625 15.34375 -25.4375 C 14.976562 -25.726562 14.492188 -25.953125 13.890625 -26.109375 C 13.296875 -26.273438 12.765625 -26.367188 12.296875 -26.390625 C 11.828125 -26.421875 11.253906 -26.4375 10.578125 -26.4375 L 9.703125 -26.4375 Z M 9.703125 -17.96875 "/></g></g></g><g fill="#151f4f" fill-opacity="1"><g transform="translate(28.574093, 34.158965)"><g><path d="M 14.25 -32.890625 C 16 -32.890625 17.707031 -32.632812 19.375 -32.125 C 21.050781 -31.613281 22.296875 -31.113281 23.109375 -30.625 L 24.28125 -29.84375 L 21.296875 -23.96875 C 21.066406 -24.125 20.742188 -24.320312 20.328125 -24.5625 C 19.910156 -24.8125 19.125 -25.144531 17.96875 -25.5625 C 16.820312 -25.988281 15.753906 -26.203125 14.765625 -26.203125 C 13.535156 -26.203125 12.585938 -25.9375 11.921875 -25.40625 C 11.253906 -24.882812 10.921875 -24.179688 10.921875 -23.296875 C 10.921875 -22.847656 11.078125 -22.4375 11.390625 -22.0625 C 11.703125 -21.6875 12.238281 -21.28125 13 -20.84375 C 13.757812 -20.414062 14.425781 -20.070312 15 -19.8125 C 15.570312 -19.550781 16.457031 -19.160156 17.65625 -18.640625 C 19.75 -17.753906 21.53125 -16.546875 23 -15.015625 C 24.476562 -13.484375 25.21875 -11.753906 25.21875 -9.828125 C 25.21875 -7.972656 24.882812 -6.351562 24.21875 -4.96875 C 23.550781 -3.582031 22.632812 -2.5 21.46875 -1.71875 C 20.3125 -0.9375 19.023438 -0.359375 17.609375 0.015625 C 16.203125 0.398438 14.675781 0.59375 13.03125 0.59375 C 11.625 0.59375 10.242188 0.445312 8.890625 0.15625 C 7.535156 -0.132812 6.398438 -0.492188 5.484375 -0.921875 C 4.566406 -1.347656 3.742188 -1.769531 3.015625 -2.1875 C 2.285156 -2.601562 1.75 -2.957031 1.40625 -3.25 L 0.90625 -3.6875 L 4.578125 -9.875 C 4.890625 -9.601562 5.320312 -9.265625 5.875 -8.859375 C 6.425781 -8.460938 7.398438 -7.921875 8.796875 -7.234375 C 10.191406 -6.554688 11.421875 -6.21875 12.484375 -6.21875 C 15.597656 -6.21875 17.15625 -7.273438 17.15625 -9.390625 C 17.15625 -9.835938 17.039062 -10.25 16.8125 -10.625 C 16.59375 -11.007812 16.203125 -11.390625 15.640625 -11.765625 C 15.078125 -12.140625 14.582031 -12.4375 14.15625 -12.65625 C 13.726562 -12.882812 13.023438 -13.226562 12.046875 -13.6875 C 11.066406 -14.144531 10.34375 -14.488281 9.875 -14.71875 C 7.914062 -15.6875 6.398438 -16.894531 5.328125 -18.34375 C 4.253906 -19.789062 3.71875 -21.351562 3.71875 -23.03125 C 3.71875 -25.925781 4.785156 -28.289062 6.921875 -30.125 C 9.066406 -31.96875 11.507812 -32.890625 14.25 -32.890625 Z M 14.25 -32.890625 "/></g></g></g></g></g></g><g clip-path="url(#bbfb53c0d6)"><g transform="matrix(1, 0, 0, 1, 5, 0.000000000000010582)"><g clip-path="url(#09f6c945e9)"><g fill="#151f4f" fill-opacity="1"><g transform="translate(0.385114, 34.158965)"><g><path d="M 31.5625 -18.09375 L 31.5625 -11.078125 C 30.726562 -7.242188 28.898438 -4.335938 26.078125 -2.359375 C 23.253906 -0.390625 20.109375 0.59375 16.640625 0.59375 C 12.285156 0.59375 8.570312 -1.035156 5.5 -4.296875 C 2.4375 -7.566406 0.90625 -11.507812 0.90625 -16.125 C 0.90625 -20.832031 2.40625 -24.800781 5.40625 -28.03125 C 8.40625 -31.269531 12.148438 -32.890625 16.640625 -32.890625 C 21.890625 -32.890625 26.039062 -31.050781 29.09375 -27.375 L 24.28125 -22.078125 C 22.550781 -24.847656 20.148438 -26.234375 17.078125 -26.234375 C 14.804688 -26.234375 12.863281 -25.25 11.25 -23.28125 C 9.644531 -21.3125 8.84375 -18.925781 8.84375 -16.125 C 8.84375 -13.382812 9.644531 -11.039062 11.25 -9.09375 C 12.863281 -7.15625 14.804688 -6.1875 17.078125 -6.1875 C 18.953125 -6.1875 20.585938 -6.753906 21.984375 -7.890625 C 23.378906 -9.023438 24.078125 -10.53125 24.078125 -12.40625 L 16.640625 -12.40625 L 16.640625 -18.09375 Z M 31.5625 -18.09375 "/></g></g></g><g fill="#151f4f" fill-opacity="1"><g transform="translate(32.845596, 34.158965)"><g><path d="M 2.34375 -32.296875 L 14.140625 -32.296875 C 17.421875 -32.296875 20.078125 -31.445312 22.109375 -29.75 C 24.148438 -28.0625 25.171875 -25.597656 25.171875 -22.359375 C 25.171875 -19.117188 24.140625 -16.578125 22.078125 -14.734375 C 20.015625 -12.898438 17.367188 -11.984375 14.140625 -11.984375 L 9.703125 -11.984375 L 9.703125 0 L 2.34375 0 Z M 9.703125 -17.859375 L 11.78125 -17.859375 C 13.425781 -17.859375 14.773438 -18.191406 15.828125 -18.859375 C 16.890625 -19.523438 17.421875 -20.613281 17.421875 -22.125 C 17.421875 -23.664062 16.890625 -24.769531 15.828125 -25.4375 C 14.773438 -26.101562 13.425781 -26.4375 11.78125 -26.4375 L 9.703125 -26.4375 Z M 9.703125 -17.859375 "/></g></g></g></g></g></g><g clip-path="url(#7c3c6e5d41)"><g clip-path="url(#a6d0bd6b5c)"><g clip-path="url(#777e7d7ae2)"><path fill="#a45ca9" d="M 74.898438 3.632812 L 78.867188 5.9375 L 74.867188 8.1875 L 70.898438 5.882812 Z M 74.898438 3.632812 " fill-opacity="1" fill-rule="nonzero"/></g></g></g><g clip-path="url(#9f9b0cc223)"><g clip-path="url(#9c65a86778)"><g clip-path="url(#6c58398967)"><path stroke-linecap="round" transform="matrix(0.0948625, 0.000662276, -0.000662276, 0.0948625, 51.252348, -6.398942)" fill="none" stroke-linejoin="round" d="M 249.992969 104.005126 L 291.997384 128.006898 L 249.998748 152.018638 L 207.994333 128.016867 Z M 249.992969 104.005126 " stroke="#2a0833" stroke-width="3.5" stroke-opacity="1" stroke-miterlimit="4"/></g></g></g><g clip-path="url(#1682ab0181)"><g clip-path="url(#7373306d83)"><g clip-path="url(#a935dd29a8)"><path fill="#7b3687" d="M 70.898438 5.882812 L 74.867188 8.1875 L 74.835938 12.738281 L 70.867188 10.433594 Z M 70.898438 5.882812 " fill-opacity="1" fill-rule="nonzero"/></g></g></g><g clip-path="url(#10afe56aa9)"><g clip-path="url(#113957bacb)"><g clip-path="url(#d2557857e0)"><path stroke-linecap="round" transform="matrix(0.0948625, 0.000662276, -0.000662276, 0.0948625, 51.252348, -6.398942)" fill="none" stroke-linejoin="round" d="M 207.994333 128.016867 L 249.998748 152.018638 L 250.00424 199.990974 L 207.999824 175.989203 Z M 207.994333 128.016867 " stroke="#2a0833" stroke-width="3.5" stroke-opacity="1" stroke-miterlimit="4"/></g></g></g><g clip-path="url(#b28c15a8ae)"><g clip-path="url(#35d6f4dddf)"><g clip-path="url(#cc975aa1b3)"><path fill="#5c1f6b" d="M 78.867188 5.9375 L 78.835938 10.492188 L 74.835938 12.738281 L 74.867188 8.1875 Z M 78.867188 5.9375 " fill-opacity="1" fill-rule="nonzero"/></g></g></g><g clip-path="url(#9104c520ae)"><g clip-path="url(#72187895d7)"><g clip-path="url(#0fa123cdca)"><path stroke-linecap="round" transform="matrix(0.0948625, 0.000662276, -0.000662276, 0.0948625, 51.252348, -6.398942)" fill="none" stroke-linejoin="round" d="M 291.997384 128.006898 L 292.003163 176.020409 L 250.00424 199.990974 L 249.998748 152.018638 Z M 291.997384 128.006898 " stroke="#2a0833" stroke-width="3.5" stroke-opacity="1" stroke-miterlimit="4"/></g></g></g><g clip-path="url(#69f6a3cd2a)"><g clip-path="url(#476a3bf300)"><g clip-path="url(#941ac141cd)"><path stroke-linecap="round" transform="matrix(0.0948625, 0.000662276, -0.000662276, 0.0948625, 51.252348, -6.398942)" fill-opacity="1" fill="#5c1f6b" fill-rule="nonzero" stroke-linejoin="round" d="M 236.005128 211.989151 L 246.010675 205.989665 L 246.017755 265.985967 L 196.017397 294.006659 Z M 236.005128 211.989151 " stroke="#2a0833" stroke-width="3.5" stroke-opacity="1" stroke-miterlimit="4"/></g></g></g><g clip-path="url(#9909aa9e4e)"><g clip-path="url(#9a1bebcb6d)"><g clip-path="url(#dd1bd6e343)"><path stroke-linecap="round" transform="matrix(0.0948625, 0.000662276, -0.000662276, 0.0948625, 51.252348, -6.398942)" fill-opacity="1" fill="#a45ca9" fill-rule="nonzero" stroke-linejoin="round" d="M 194.000713 187.987379 L 236.005128 211.989151 L 196.017397 294.006659 L 154.012982 270.004888 Z M 194.000713 187.987379 " stroke="#2a0833" stroke-width="3.5" stroke-opacity="1" stroke-miterlimit="4"/></g></g></g><g clip-path="url(#33fdc01449)"><g clip-path="url(#2fc9006ffb)"><g clip-path="url(#49adb4d331)"><path fill="#a45ca9" d="M 70.484375 11 L 74.453125 13.304688 L 73.5 13.867188 L 69.53125 11.5625 Z M 70.484375 11 " fill-opacity="1" fill-rule="nonzero"/></g></g></g><g clip-path="url(#76b733f937)"><g clip-path="url(#9a7648eaa8)"><g clip-path="url(#1ce5abe985)"><path stroke-linecap="round" transform="matrix(0.0948625, 0.000662276, -0.000662276, 0.0948625, 51.252348, -6.398942)" fill="none" stroke-linejoin="round" d="M 204.00626 181.987894 L 246.010675 205.989665 L 236.005128 211.989151 L 194.000713 187.987379 Z M 204.00626 181.987894 " stroke="#2a0833" stroke-width="3.5" stroke-opacity="1" stroke-miterlimit="4"/></g></g></g><g clip-path="url(#ee57febde9)"><g clip-path="url(#78345aa220)"><g clip-path="url(#c482a18723)"><path stroke-linecap="round" transform="matrix(0.0948625, 0.000662276, -0.000662276, 0.0948625, 51.252348, -6.398942)" fill-opacity="1" fill="#7b3687" fill-rule="nonzero" stroke-linejoin="round" d="M 154.012982 270.004888 L 196.017397 294.006659 L 195.982 342.020458 L 154.018761 318.018399 Z M 154.012982 270.004888 " stroke="#2a0833" stroke-width="3.5" stroke-opacity="1" stroke-miterlimit="4"/></g></g></g><g clip-path="url(#2ce77146e6)"><g clip-path="url(#7145bc741e)"><g clip-path="url(#c60f6f9943)"><path fill="#7b3687" d="M 75.210938 13.3125 L 76.15625 13.886719 L 79.894531 21.691406 L 75.171875 19.003906 Z M 75.210938 13.3125 " fill-opacity="1" fill-rule="nonzero"/></g></g></g><g clip-path="url(#6f1f383b1e)"><g clip-path="url(#ec706cb49f)"><g clip-path="url(#cfa002efc6)"><path stroke-linecap="round" transform="matrix(0.0948625, 0.000662276, -0.000662276, 0.0948625, 51.252348, -6.398942)" fill="none" stroke-linejoin="round" d="M 253.999393 206.016248 L 264.006241 211.999553 L 303.986026 293.994087 L 254.006473 266.01255 Z M 253.999393 206.016248 " stroke="#2a0833" stroke-width="3.5" stroke-opacity="1" stroke-miterlimit="4"/></g></g></g><g clip-path="url(#025877c3a7)"><g clip-path="url(#7b93772acc)"><g clip-path="url(#84fb3a5083)"><path fill="#a45ca9" d="M 76.15625 13.886719 L 79.777344 11.636719 L 83.894531 19.441406 L 79.894531 21.691406 Z M 76.15625 13.886719 " fill-opacity="1" fill-rule="nonzero"/></g></g></g><g clip-path="url(#370bff9329)"><g clip-path="url(#bd999f8970)"><g clip-path="url(#acaa2f036a)"><path stroke-linecap="round" transform="matrix(0.0948625, 0.000662276, -0.000662276, 0.0948625, 51.252348, -6.398942)" fill="none" stroke-linejoin="round" d="M 264.006241 211.999553 L 302.010805 188.015697 L 345.984662 269.982347 L 303.986026 293.994087 Z M 264.006241 211.999553 " stroke="#2a0833" stroke-width="3.5" stroke-opacity="1" stroke-miterlimit="4"/></g></g></g><g clip-path="url(#892697e9da)"><g clip-path="url(#5060448043)"><g clip-path="url(#ef27acdb8c)"><path fill="#a45ca9" d="M 75.210938 13.3125 L 79.019531 11.0625 L 79.777344 11.636719 L 76.15625 13.886719 Z M 75.210938 13.3125 " fill-opacity="1" fill-rule="nonzero"/></g></g></g><g clip-path="url(#d9b5cbfc25)"><g clip-path="url(#59494f62d6)"><g clip-path="url(#8d0d1bed07)"><path stroke-linecap="round" transform="matrix(0.0948625, 0.000662276, -0.000662276, 0.0948625, 51.252348, -6.398942)" fill="none" stroke-linejoin="round" d="M 253.999393 206.016248 L 293.980405 182.018594 L 302.010805 188.015697 L 264.006241 211.999553 Z M 253.999393 206.016248 " stroke="#2a0833" stroke-width="3.5" stroke-opacity="1" stroke-miterlimit="4"/></g></g></g><g clip-path="url(#c668cb1295)"><g clip-path="url(#9cd702c6f1)"><g clip-path="url(#197f1c4eca)"><path fill="#5c1f6b" d="M 79.894531 21.691406 L 83.894531 19.441406 L 83.863281 23.996094 L 79.863281 26.246094 Z M 79.894531 21.691406 " fill-opacity="1" fill-rule="nonzero"/></g></g></g><g clip-path="url(#9909a3e638)"><g clip-path="url(#7d570b27ef)"><g clip-path="url(#b8b2a21ad7)"><path stroke-linecap="round" transform="matrix(0.0948625, 0.000662276, -0.000662276, 0.0948625, 51.252348, -6.398942)" fill="none" stroke-linejoin="round" d="M 303.986026 293.994087 L 345.984662 269.982347 L 345.990441 317.995859 L 303.991805 342.007599 Z M 303.986026 293.994087 " stroke="#2a0833" stroke-width="3.5" stroke-opacity="1" stroke-miterlimit="4"/></g></g></g><g clip-path="url(#d4ac0b1971)"><g clip-path="url(#e0cfe86af5)"><g clip-path="url(#7a686d47f7)"><path stroke-linecap="round" transform="matrix(0.0948625, 0.000662276, -0.000662276, 0.0948625, 51.252348, -6.398942)" fill-opacity="1" fill="#7b3687" fill-rule="nonzero" stroke-linejoin="round" d="M 249.98553 273.987977 L 295.984304 298.003039 L 250.005395 324.019112 L 203.992535 297.986425 Z M 249.98553 273.987977 " stroke="#2a0833" stroke-width="3.5" stroke-opacity="1" stroke-miterlimit="4"/></g></g></g><g clip-path="url(#f41deba5f3)"><g clip-path="url(#4c0961233f)"><g clip-path="url(#5558ed63ad)"><path fill="#7b3687" d="M 70.40625 22.003906 L 74.753906 24.503906 L 74.722656 29.054688 L 70.375 26.558594 Z M 70.40625 22.003906 " fill-opacity="1" fill-rule="nonzero"/></g></g></g><g clip-path="url(#8e39c4c15b)"><g clip-path="url(#932d3a445d)"><g clip-path="url(#b4e4493959)"><path stroke-linecap="round" transform="matrix(0.0948625, 0.000662276, -0.000662276, 0.0948625, 51.252348, -6.398942)" fill="none" stroke-linejoin="round" d="M 203.992535 297.986425 L 250.005395 324.019112 L 250.010887 371.991448 L 203.998314 345.999937 Z M 203.992535 297.986425 " stroke="#2a0833" stroke-width="3.5" stroke-opacity="1" stroke-miterlimit="4"/></g></g></g><g clip-path="url(#f52d0bf7de)"><g clip-path="url(#c65757a6e2)"><g clip-path="url(#b41119caa5)"><path fill="#5c1f6b" d="M 74.753906 24.503906 L 79.132812 22.066406 L 79.101562 26.621094 L 74.722656 29.054688 Z M 74.753906 24.503906 " fill-opacity="1" fill-rule="nonzero"/></g></g></g><g clip-path="url(#35b79434f1)"><g clip-path="url(#dd8e2a7522)"><g clip-path="url(#748fdc0293)"><path stroke-linecap="round" transform="matrix(0.0948625, 0.000662276, -0.000662276, 0.0948625, 51.252348, -6.398942)" fill="none" stroke-linejoin="round" d="M 250.005395 324.019112 L 295.984304 298.003039 L 295.990083 346.016551 L 250.010887 371.991448 Z M 250.005395 324.019112 " stroke="#2a0833" stroke-width="3.5" stroke-opacity="1" stroke-miterlimit="4"/></g></g></g><g clip-path="url(#6a7700ba4a)"><g clip-path="url(#52f40be785)"><g clip-path="url(#dd63803ce1)"><path fill="#a45ca9" d="M 65.265625 24.4375 L 69.234375 26.742188 L 65.234375 28.988281 L 61.265625 26.683594 Z M 65.265625 24.4375 " fill-opacity="1" fill-rule="nonzero"/></g></g></g><g clip-path="url(#94e8c091cc)"><g clip-path="url(#2a7d00f1d6)"><g clip-path="url(#47a687b4c0)"><path stroke-linecap="round" transform="matrix(0.0948625, 0.000662276, -0.000662276, 0.0948625, 51.252348, -6.398942)" fill="none" stroke-linejoin="round" d="M 149.98402 324.017378 L 191.988435 348.019149 L 149.989512 371.989714 L 107.985097 347.987943 Z M 149.98402 324.017378 " stroke="#2a0833" stroke-width="3.5" stroke-opacity="1" stroke-miterlimit="4"/></g></g></g><g clip-path="url(#2297f03f71)"><g clip-path="url(#30e5346d23)"><g clip-path="url(#51c4517afa)"><path stroke-linecap="round" transform="matrix(0.0948625, 0.000662276, -0.000662276, 0.0948625, 51.252348, -6.398942)" fill-opacity="1" fill="#7b3687" fill-rule="nonzero" stroke-linejoin="round" d="M 107.985097 347.987943 L 149.989512 371.989714 L 149.995291 420.003226 L 107.990876 396.001454 Z M 107.985097 347.987943 " stroke="#2a0833" stroke-width="3.5" stroke-opacity="1" stroke-miterlimit="4"/></g></g></g><g clip-path="url(#c8ef4c9abf)"><g clip-path="url(#b93c5e8234)"><g clip-path="url(#6b85b1173e)"><path stroke-linecap="round" transform="matrix(0.0948625, 0.000662276, -0.000662276, 0.0948625, 51.252348, -6.398942)" fill-opacity="1" fill="#5c1f6b" fill-rule="nonzero" stroke-linejoin="round" d="M 191.988435 348.019149 L 191.993927 395.991485 L 149.995291 420.003226 L 149.989512 371.989714 Z M 191.988435 348.019149 " stroke="#2a0833" stroke-width="3.5" stroke-opacity="1" stroke-miterlimit="4"/></g></g></g><g clip-path="url(#956ac1d0b7)"><g clip-path="url(#c2f5a564cb)"><g clip-path="url(#09f6535bdb)"><path stroke-linecap="round" transform="matrix(0.0948625, 0.000662276, -0.000662276, 0.0948625, 51.252348, -6.398942)" fill-opacity="1" fill="#a45ca9" fill-rule="nonzero" stroke-linejoin="round" d="M 349.985307 323.979957 L 391.989722 347.981728 L 349.991086 371.993469 L 307.986671 347.991698 Z M 349.985307 323.979957 " stroke="#2a0833" stroke-width="3.5" stroke-opacity="1" stroke-miterlimit="4"/></g></g></g><g clip-path="url(#b143171494)"><g clip-path="url(#697c17313b)"><g clip-path="url(#dc162bb21e)"><path stroke-linecap="round" transform="matrix(0.0948625, 0.000662276, -0.000662276, 0.0948625, 51.252348, -6.398942)" fill-opacity="1" fill="#7b3687" fill-rule="nonzero" stroke-linejoin="round" d="M 307.986671 347.991698 L 349.991086 371.993469 L 349.996865 420.00698 L 307.99245 396.005209 Z M 307.986671 347.991698 " stroke="#2a0833" stroke-width="3.5" stroke-opacity="1" stroke-miterlimit="4"/></g></g></g><g clip-path="url(#db29edeba3)"><g clip-path="url(#5565f269d2)"><g clip-path="url(#1dbae48dfa)"><path stroke-linecap="round" transform="matrix(0.0948625, 0.000662276, -0.000662276, 0.0948625, 51.252348, -6.398942)" fill-opacity="1" fill="#5c1f6b" fill-rule="nonzero" stroke-linejoin="round" d="M 391.989722 347.981728 L 391.995501 395.99524 L 349.996865 420.00698 L 349.991086 371.993469 Z M 391.989722 347.981728 " stroke="#2a0833" stroke-width="3.5" stroke-opacity="1" stroke-miterlimit="4"/></g></g></g></svg>