<svg xmlns="http://www.w3.org/2000/svg" xmlns:xlink="http://www.w3.org/1999/xlink" width="48" zoomAndPan="magnify" viewBox="0 0 36 36.000001" height="48" preserveAspectRatio="xMidYMid meet" version="1.0"><defs><clipPath id="daa1193a3e"><path d="M 13 0 L 23 0 L 23 6 L 13 6 Z M 13 0 " clip-rule="nonzero"/></clipPath><clipPath id="d53eeb20f0"><path d="M -0.234375 -0.941406 L 36.25 -0.6875 L 35.996094 35.796875 L -0.492188 35.542969 Z M -0.234375 -0.941406 " clip-rule="nonzero"/></clipPath><clipPath id="8f473c4f27"><path d="M -8.921875 -11.21875 L 45.808594 -10.835938 L 45.425781 43.890625 L -9.304688 43.507812 Z M -8.921875 -11.21875 " clip-rule="nonzero"/></clipPath><clipPath id="de7c9ae701"><path d="M 13 0 L 24 0 L 24 6 L 13 6 Z M 13 0 " clip-rule="nonzero"/></clipPath><clipPath id="f94679368a"><path d="M -0.234375 -0.941406 L 36.25 -0.6875 L 35.996094 35.796875 L -0.492188 35.542969 Z M -0.234375 -0.941406 " clip-rule="nonzero"/></clipPath><clipPath id="1a6d80d38d"><path d="M -8.921875 -11.21875 L 45.808594 -10.835938 L 45.425781 43.890625 L -9.304688 43.507812 Z M -8.921875 -11.21875 " clip-rule="nonzero"/></clipPath><clipPath id="3e1f09a4b0"><path d="M 13 2 L 19 2 L 19 11 L 13 11 Z M 13 2 " clip-rule="nonzero"/></clipPath><clipPath id="ef806e4b95"><path d="M -0.234375 -0.941406 L 36.25 -0.6875 L 35.996094 35.796875 L -0.492188 35.542969 Z M -0.234375 -0.941406 " clip-rule="nonzero"/></clipPath><clipPath id="d99bfb0f1a"><path d="M -8.921875 -11.21875 L 45.808594 -10.835938 L 45.425781 43.890625 L -9.304688 43.507812 Z M -8.921875 -11.21875 " clip-rule="nonzero"/></clipPath><clipPath id="be385bcf17"><path d="M 13 2 L 19 2 L 19 12 L 13 12 Z M 13 2 " clip-rule="nonzero"/></clipPath><clipPath id="6e4c2f6d13"><path d="M -0.234375 -0.941406 L 36.25 -0.6875 L 35.996094 35.796875 L -0.492188 35.542969 Z M -0.234375 -0.941406 " clip-rule="nonzero"/></clipPath><clipPath id="267f0ec4e7"><path d="M -8.921875 -11.21875 L 45.808594 -10.835938 L 45.425781 43.890625 L -9.304688 43.507812 Z M -8.921875 -11.21875 " clip-rule="nonzero"/></clipPath><clipPath id="b826f92621"><path d="M 18 3 L 23 3 L 23 11 L 18 11 Z M 18 3 " clip-rule="nonzero"/></clipPath><clipPath id="b7c1879980"><path d="M -0.234375 -0.941406 L 36.25 -0.6875 L 35.996094 35.796875 L -0.492188 35.542969 Z M -0.234375 -0.941406 " clip-rule="nonzero"/></clipPath><clipPath id="c4edfc5495"><path d="M -8.921875 -11.21875 L 45.808594 -10.835938 L 45.425781 43.890625 L -9.304688 43.507812 Z M -8.921875 -11.21875 " clip-rule="nonzero"/></clipPath><clipPath id="9d7eeb7409"><path d="M 18 2 L 24 2 L 24 12 L 18 12 Z M 18 2 " clip-rule="nonzero"/></clipPath><clipPath id="e8554b56e0"><path d="M -0.234375 -0.941406 L 36.25 -0.6875 L 35.996094 35.796875 L -0.492188 35.542969 Z M -0.234375 -0.941406 " clip-rule="nonzero"/></clipPath><clipPath id="3fa0e39982"><path d="M -8.921875 -11.21875 L 45.808594 -10.835938 L 45.425781 43.890625 L -9.304688 43.507812 Z M -8.921875 -11.21875 " clip-rule="nonzero"/></clipPath><clipPath id="8d8b5c4c5b"><path d="M 12 11 L 18 11 L 18 22 L 12 22 Z M 12 11 " clip-rule="nonzero"/></clipPath><clipPath id="aab747d8a3"><path d="M -0.234375 -0.941406 L 36.25 -0.6875 L 35.996094 35.796875 L -0.492188 35.542969 Z M -0.234375 -0.941406 " clip-rule="nonzero"/></clipPath><clipPath id="bb0b8637d2"><path d="M -8.921875 -11.21875 L 45.808594 -10.835938 L 45.425781 43.890625 L -9.304688 43.507812 Z M -8.921875 -11.21875 " clip-rule="nonzero"/></clipPath><clipPath id="83ad577f49"><path d="M 12 11 L 19 11 L 19 22 L 12 22 Z M 12 11 " clip-rule="nonzero"/></clipPath><clipPath id="1c6e83acbf"><path d="M -0.234375 -0.941406 L 36.25 -0.6875 L 35.996094 35.796875 L -0.492188 35.542969 Z M -0.234375 -0.941406 " clip-rule="nonzero"/></clipPath><clipPath id="562b8f7c99"><path d="M -8.921875 -11.21875 L 45.808594 -10.835938 L 45.425781 43.890625 L -9.304688 43.507812 Z M -8.921875 -11.21875 " clip-rule="nonzero"/></clipPath><clipPath id="12d88fc12b"><path d="M 7 9 L 17 9 L 17 22 L 7 22 Z M 7 9 " clip-rule="nonzero"/></clipPath><clipPath id="862e857312"><path d="M -0.234375 -0.941406 L 36.25 -0.6875 L 35.996094 35.796875 L -0.492188 35.542969 Z M -0.234375 -0.941406 " clip-rule="nonzero"/></clipPath><clipPath id="dccf9a20db"><path d="M -8.921875 -11.21875 L 45.808594 -10.835938 L 45.425781 43.890625 L -9.304688 43.507812 Z M -8.921875 -11.21875 " clip-rule="nonzero"/></clipPath><clipPath id="ad1aa28de6"><path d="M 12 8 L 18 8 L 18 13 L 12 13 Z M 12 8 " clip-rule="nonzero"/></clipPath><clipPath id="6fbb1dfd71"><path d="M -0.234375 -0.941406 L 36.25 -0.6875 L 35.996094 35.796875 L -0.492188 35.542969 Z M -0.234375 -0.941406 " clip-rule="nonzero"/></clipPath><clipPath id="0eb8c6a023"><path d="M -8.921875 -11.21875 L 45.808594 -10.835938 L 45.425781 43.890625 L -9.304688 43.507812 Z M -8.921875 -11.21875 " clip-rule="nonzero"/></clipPath><clipPath id="e3d7e6d5cc"><path d="M 11 8 L 19 8 L 19 13 L 11 13 Z M 11 8 " clip-rule="nonzero"/></clipPath><clipPath id="4b62e6fb08"><path d="M -0.234375 -0.941406 L 36.25 -0.6875 L 35.996094 35.796875 L -0.492188 35.542969 Z M -0.234375 -0.941406 " clip-rule="nonzero"/></clipPath><clipPath id="2c89030983"><path d="M -8.921875 -11.21875 L 45.808594 -10.835938 L 45.425781 43.890625 L -9.304688 43.507812 Z M -8.921875 -11.21875 " clip-rule="nonzero"/></clipPath><clipPath id="fa820d2b0c"><path d="M 7 18 L 13 18 L 13 27 L 7 27 Z M 7 18 " clip-rule="nonzero"/></clipPath><clipPath id="353441da05"><path d="M -0.234375 -0.941406 L 36.25 -0.6875 L 35.996094 35.796875 L -0.492188 35.542969 Z M -0.234375 -0.941406 " clip-rule="nonzero"/></clipPath><clipPath id="dcaf725b01"><path d="M -8.921875 -11.21875 L 45.808594 -10.835938 L 45.425781 43.890625 L -9.304688 43.507812 Z M -8.921875 -11.21875 " clip-rule="nonzero"/></clipPath><clipPath id="3d27d9ad3c"><path d="M 18 11 L 25 11 L 25 22 L 18 22 Z M 18 11 " clip-rule="nonzero"/></clipPath><clipPath id="2d3c3ce823"><path d="M -0.234375 -0.941406 L 36.25 -0.6875 L 35.996094 35.796875 L -0.492188 35.542969 Z M -0.234375 -0.941406 " clip-rule="nonzero"/></clipPath><clipPath id="19a1ca7ece"><path d="M -8.921875 -11.21875 L 45.808594 -10.835938 L 45.425781 43.890625 L -9.304688 43.507812 Z M -8.921875 -11.21875 " clip-rule="nonzero"/></clipPath><clipPath id="e63439e54d"><path d="M 19 9 L 29 9 L 29 22 L 19 22 Z M 19 9 " clip-rule="nonzero"/></clipPath><clipPath id="5977e6995b"><path d="M -0.234375 -0.941406 L 36.25 -0.6875 L 35.996094 35.796875 L -0.492188 35.542969 Z M -0.234375 -0.941406 " clip-rule="nonzero"/></clipPath><clipPath id="a0d474f396"><path d="M -8.921875 -11.21875 L 45.808594 -10.835938 L 45.425781 43.890625 L -9.304688 43.507812 Z M -8.921875 -11.21875 " clip-rule="nonzero"/></clipPath><clipPath id="76c73dd9eb"><path d="M 18 8 L 24 8 L 24 13 L 18 13 Z M 18 8 " clip-rule="nonzero"/></clipPath><clipPath id="85662adaed"><path d="M -0.234375 -0.941406 L 36.25 -0.6875 L 35.996094 35.796875 L -0.492188 35.542969 Z M -0.234375 -0.941406 " clip-rule="nonzero"/></clipPath><clipPath id="a3a718f30a"><path d="M -8.921875 -11.21875 L 45.808594 -10.835938 L 45.425781 43.890625 L -9.304688 43.507812 Z M -8.921875 -11.21875 " clip-rule="nonzero"/></clipPath><clipPath id="e3c09f7d23"><path d="M 18 8 L 25 8 L 25 13 L 18 13 Z M 18 8 " clip-rule="nonzero"/></clipPath><clipPath id="8670b81172"><path d="M -0.234375 -0.941406 L 36.25 -0.6875 L 35.996094 35.796875 L -0.492188 35.542969 Z M -0.234375 -0.941406 " clip-rule="nonzero"/></clipPath><clipPath id="f548c6392a"><path d="M -8.921875 -11.21875 L 45.808594 -10.835938 L 45.425781 43.890625 L -9.304688 43.507812 Z M -8.921875 -11.21875 " clip-rule="nonzero"/></clipPath><clipPath id="ed34bb7d50"><path d="M 24 18 L 29 18 L 29 27 L 24 27 Z M 24 18 " clip-rule="nonzero"/></clipPath><clipPath id="8590349d71"><path d="M -0.234375 -0.941406 L 36.25 -0.6875 L 35.996094 35.796875 L -0.492188 35.542969 Z M -0.234375 -0.941406 " clip-rule="nonzero"/></clipPath><clipPath id="b44ad2d086"><path d="M -8.921875 -11.21875 L 45.808594 -10.835938 L 45.425781 43.890625 L -9.304688 43.507812 Z M -8.921875 -11.21875 " clip-rule="nonzero"/></clipPath><clipPath id="2ad4c9efdf"><path d="M 23 18 L 29 18 L 29 27 L 23 27 Z M 23 18 " clip-rule="nonzero"/></clipPath><clipPath id="cacc73053e"><path d="M -0.234375 -0.941406 L 36.25 -0.6875 L 35.996094 35.796875 L -0.492188 35.542969 Z M -0.234375 -0.941406 " clip-rule="nonzero"/></clipPath><clipPath id="b518bdd557"><path d="M -8.921875 -11.21875 L 45.808594 -10.835938 L 45.425781 43.890625 L -9.304688 43.507812 Z M -8.921875 -11.21875 " clip-rule="nonzero"/></clipPath><clipPath id="6cd1a6581d"><path d="M 13 18 L 24 18 L 24 25 L 13 25 Z M 13 18 " clip-rule="nonzero"/></clipPath><clipPath id="3133c36585"><path d="M -0.234375 -0.941406 L 36.25 -0.6875 L 35.996094 35.796875 L -0.492188 35.542969 Z M -0.234375 -0.941406 " clip-rule="nonzero"/></clipPath><clipPath id="60d20f76a9"><path d="M -8.921875 -11.21875 L 45.808594 -10.835938 L 45.425781 43.890625 L -9.304688 43.507812 Z M -8.921875 -11.21875 " clip-rule="nonzero"/></clipPath><clipPath id="4a7f87e749"><path d="M 12 18 L 24 18 L 24 25 L 12 25 Z M 12 18 " clip-rule="nonzero"/></clipPath><clipPath id="2066873ec0"><path d="M -0.234375 -0.941406 L 36.25 -0.6875 L 35.996094 35.796875 L -0.492188 35.542969 Z M -0.234375 -0.941406 " clip-rule="nonzero"/></clipPath><clipPath id="64d0275f18"><path d="M -8.921875 -11.21875 L 45.808594 -10.835938 L 45.425781 43.890625 L -9.304688 43.507812 Z M -8.921875 -11.21875 " clip-rule="nonzero"/></clipPath><clipPath id="a4099b1d3b"><path d="M 13 21 L 19 21 L 19 30 L 13 30 Z M 13 21 " clip-rule="nonzero"/></clipPath><clipPath id="840acd3eb5"><path d="M -0.234375 -0.941406 L 36.25 -0.6875 L 35.996094 35.796875 L -0.492188 35.542969 Z M -0.234375 -0.941406 " clip-rule="nonzero"/></clipPath><clipPath id="a97b6ce4ca"><path d="M -8.921875 -11.21875 L 45.808594 -10.835938 L 45.425781 43.890625 L -9.304688 43.507812 Z M -8.921875 -11.21875 " clip-rule="nonzero"/></clipPath><clipPath id="3447c99069"><path d="M 12 21 L 19 21 L 19 30 L 12 30 Z M 12 21 " clip-rule="nonzero"/></clipPath><clipPath id="4251c0c28c"><path d="M -0.234375 -0.941406 L 36.25 -0.6875 L 35.996094 35.796875 L -0.492188 35.542969 Z M -0.234375 -0.941406 " clip-rule="nonzero"/></clipPath><clipPath id="5f15820231"><path d="M -8.921875 -11.21875 L 45.808594 -10.835938 L 45.425781 43.890625 L -9.304688 43.507812 Z M -8.921875 -11.21875 " clip-rule="nonzero"/></clipPath><clipPath id="e414973b23"><path d="M 18 21 L 24 21 L 24 30 L 18 30 Z M 18 21 " clip-rule="nonzero"/></clipPath><clipPath id="8861b4bf18"><path d="M -0.234375 -0.941406 L 36.25 -0.6875 L 35.996094 35.796875 L -0.492188 35.542969 Z M -0.234375 -0.941406 " clip-rule="nonzero"/></clipPath><clipPath id="9a3ec2cb4a"><path d="M -8.921875 -11.21875 L 45.808594 -10.835938 L 45.425781 43.890625 L -9.304688 43.507812 Z M -8.921875 -11.21875 " clip-rule="nonzero"/></clipPath><clipPath id="7d00c6612e"><path d="M 17 21 L 24 21 L 24 30 L 17 30 Z M 17 21 " clip-rule="nonzero"/></clipPath><clipPath id="75dfef81cf"><path d="M -0.234375 -0.941406 L 36.25 -0.6875 L 35.996094 35.796875 L -0.492188 35.542969 Z M -0.234375 -0.941406 " clip-rule="nonzero"/></clipPath><clipPath id="7fc4907fba"><path d="M -8.921875 -11.21875 L 45.808594 -10.835938 L 45.425781 43.890625 L -9.304688 43.507812 Z M -8.921875 -11.21875 " clip-rule="nonzero"/></clipPath><clipPath id="8230566ca9"><path d="M 2 24 L 12 24 L 12 30 L 2 30 Z M 2 24 " clip-rule="nonzero"/></clipPath><clipPath id="7eb54b93bf"><path d="M -0.234375 -0.941406 L 36.25 -0.6875 L 35.996094 35.796875 L -0.492188 35.542969 Z M -0.234375 -0.941406 " clip-rule="nonzero"/></clipPath><clipPath id="d439427378"><path d="M -8.921875 -11.21875 L 45.808594 -10.835938 L 45.425781 43.890625 L -9.304688 43.507812 Z M -8.921875 -11.21875 " clip-rule="nonzero"/></clipPath><clipPath id="8ea4cf1533"><path d="M 2 24 L 13 24 L 13 30 L 2 30 Z M 2 24 " clip-rule="nonzero"/></clipPath><clipPath id="c7b2fec882"><path d="M -0.234375 -0.941406 L 36.25 -0.6875 L 35.996094 35.796875 L -0.492188 35.542969 Z M -0.234375 -0.941406 " clip-rule="nonzero"/></clipPath><clipPath id="24effac891"><path d="M -8.921875 -11.21875 L 45.808594 -10.835938 L 45.425781 43.890625 L -9.304688 43.507812 Z M -8.921875 -11.21875 " clip-rule="nonzero"/></clipPath><clipPath id="a029b8ded9"><path d="M 2 26 L 8 26 L 8 35 L 2 35 Z M 2 26 " clip-rule="nonzero"/></clipPath><clipPath id="63e94239fd"><path d="M -0.234375 -0.941406 L 36.25 -0.6875 L 35.996094 35.796875 L -0.492188 35.542969 Z M -0.234375 -0.941406 " clip-rule="nonzero"/></clipPath><clipPath id="a943ac53c5"><path d="M -8.921875 -11.21875 L 45.808594 -10.835938 L 45.425781 43.890625 L -9.304688 43.507812 Z M -8.921875 -11.21875 " clip-rule="nonzero"/></clipPath><clipPath id="48b7f328cd"><path d="M 2 26 L 8 26 L 8 35.027344 L 2 35.027344 Z M 2 26 " clip-rule="nonzero"/></clipPath><clipPath id="553ec034ba"><path d="M -0.234375 -0.941406 L 36.25 -0.6875 L 35.996094 35.796875 L -0.492188 35.542969 Z M -0.234375 -0.941406 " clip-rule="nonzero"/></clipPath><clipPath id="409042c1e7"><path d="M -8.921875 -11.21875 L 45.808594 -10.835938 L 45.425781 43.890625 L -9.304688 43.507812 Z M -8.921875 -11.21875 " clip-rule="nonzero"/></clipPath><clipPath id="6868a9030e"><path d="M 7 27 L 12 27 L 12 35 L 7 35 Z M 7 27 " clip-rule="nonzero"/></clipPath><clipPath id="9dd6c7d383"><path d="M -0.234375 -0.941406 L 36.25 -0.6875 L 35.996094 35.796875 L -0.492188 35.542969 Z M -0.234375 -0.941406 " clip-rule="nonzero"/></clipPath><clipPath id="261fae6dfc"><path d="M -8.921875 -11.21875 L 45.808594 -10.835938 L 45.425781 43.890625 L -9.304688 43.507812 Z M -8.921875 -11.21875 " clip-rule="nonzero"/></clipPath><clipPath id="1e69027092"><path d="M 6 26 L 13 26 L 13 35.027344 L 6 35.027344 Z M 6 26 " clip-rule="nonzero"/></clipPath><clipPath id="f3daac2afd"><path d="M -0.234375 -0.941406 L 36.25 -0.6875 L 35.996094 35.796875 L -0.492188 35.542969 Z M -0.234375 -0.941406 " clip-rule="nonzero"/></clipPath><clipPath id="5a33d40a2e"><path d="M -8.921875 -11.21875 L 45.808594 -10.835938 L 45.425781 43.890625 L -9.304688 43.507812 Z M -8.921875 -11.21875 " clip-rule="nonzero"/></clipPath><clipPath id="f9da499284"><path d="M 24 24 L 34 24 L 34 30 L 24 30 Z M 24 24 " clip-rule="nonzero"/></clipPath><clipPath id="ad7eeb11d1"><path d="M -0.234375 -0.941406 L 36.25 -0.6875 L 35.996094 35.796875 L -0.492188 35.542969 Z M -0.234375 -0.941406 " clip-rule="nonzero"/></clipPath><clipPath id="7438788e44"><path d="M -8.921875 -11.21875 L 45.808594 -10.835938 L 45.425781 43.890625 L -9.304688 43.507812 Z M -8.921875 -11.21875 " clip-rule="nonzero"/></clipPath><clipPath id="10a92ce1b0"><path d="M 24 27 L 30 27 L 30 35.027344 L 24 35.027344 Z M 24 27 " clip-rule="nonzero"/></clipPath><clipPath id="302a69117a"><path d="M -0.234375 -0.941406 L 36.25 -0.6875 L 35.996094 35.796875 L -0.492188 35.542969 Z M -0.234375 -0.941406 " clip-rule="nonzero"/></clipPath><clipPath id="1d626a13e9"><path d="M -8.921875 -11.21875 L 45.808594 -10.835938 L 45.425781 43.890625 L -9.304688 43.507812 Z M -8.921875 -11.21875 " clip-rule="nonzero"/></clipPath><clipPath id="e08a9e4890"><path d="M 24 26 L 30 26 L 30 35.027344 L 24 35.027344 Z M 24 26 " clip-rule="nonzero"/></clipPath><clipPath id="422ecbce9e"><path d="M -0.234375 -0.941406 L 36.25 -0.6875 L 35.996094 35.796875 L -0.492188 35.542969 Z M -0.234375 -0.941406 " clip-rule="nonzero"/></clipPath><clipPath id="4b986cc119"><path d="M -8.921875 -11.21875 L 45.808594 -10.835938 L 45.425781 43.890625 L -9.304688 43.507812 Z M -8.921875 -11.21875 " clip-rule="nonzero"/></clipPath><clipPath id="bf7042cd52"><path d="M 29 27 L 34 27 L 34 35.027344 L 29 35.027344 Z M 29 27 " clip-rule="nonzero"/></clipPath><clipPath id="d69db0cba1"><path d="M -0.234375 -0.941406 L 36.25 -0.6875 L 35.996094 35.796875 L -0.492188 35.542969 Z M -0.234375 -0.941406 " clip-rule="nonzero"/></clipPath><clipPath id="553030b2a6"><path d="M -8.921875 -11.21875 L 45.808594 -10.835938 L 45.425781 43.890625 L -9.304688 43.507812 Z M -8.921875 -11.21875 " clip-rule="nonzero"/></clipPath><clipPath id="26ec0a98df"><path d="M 28 26 L 34 26 L 34 35.027344 L 28 35.027344 Z M 28 26 " clip-rule="nonzero"/></clipPath><clipPath id="752f5020ac"><path d="M -0.234375 -0.941406 L 36.25 -0.6875 L 35.996094 35.796875 L -0.492188 35.542969 Z M -0.234375 -0.941406 " clip-rule="nonzero"/></clipPath><clipPath id="ff43aa642e"><path d="M -8.921875 -11.21875 L 45.808594 -10.835938 L 45.425781 43.890625 L -9.304688 43.507812 Z M -8.921875 -11.21875 " clip-rule="nonzero"/></clipPath></defs><g clip-path="url(#daa1193a3e)"><g clip-path="url(#d53eeb20f0)"><g clip-path="url(#8f473c4f27)"><path fill="#a45ca9" d="M 18.363281 0.355469 L 22.941406 3.015625 L 18.328125 5.609375 L 13.75 2.949219 Z M 18.363281 0.355469 " fill-opacity="1" fill-rule="nonzero"/></g></g></g><g clip-path="url(#de7c9ae701)"><g clip-path="url(#f94679368a)"><g clip-path="url(#1a6d80d38d)"><path stroke-linecap="round" transform="matrix(0.109457, 0.000764165, -0.000764165, 0.109457, -8.920971, -11.219259)" fill="none" stroke-linejoin="round" d="M 249.99569 104.001677 L 291.989179 128.011756 L 250.009609 152.001398 L 208.01612 127.991319 Z M 249.99569 104.001677 " stroke="#2a0833" stroke-width="3.5" stroke-opacity="1" stroke-miterlimit="4"/></g></g></g><g clip-path="url(#3e1f09a4b0)"><g clip-path="url(#ef806e4b95)"><g clip-path="url(#d99bfb0f1a)"><path fill="#7b3687" d="M 13.75 2.949219 L 18.328125 5.609375 L 18.289062 10.863281 L 13.710938 8.203125 Z M 13.75 2.949219 " fill-opacity="1" fill-rule="nonzero"/></g></g></g><g clip-path="url(#be385bcf17)"><g clip-path="url(#6e4c2f6d13)"><g clip-path="url(#267f0ec4e7)"><path stroke-linecap="round" transform="matrix(0.109457, 0.000764165, -0.000764165, 0.109457, -8.920971, -11.219259)" fill="none" stroke-linejoin="round" d="M 208.01612 127.991319 L 250.009609 152.001398 L 249.987841 200.001369 L 207.994352 175.99129 Z M 208.01612 127.991319 " stroke="#2a0833" stroke-width="3.5" stroke-opacity="1" stroke-miterlimit="4"/></g></g></g><g clip-path="url(#b826f92621)"><g clip-path="url(#b7c1879980)"><g clip-path="url(#c4edfc5495)"><path fill="#5c1f6b" d="M 22.941406 3.015625 L 22.90625 8.269531 L 18.289062 10.863281 L 18.328125 5.609375 Z M 22.941406 3.015625 " fill-opacity="1" fill-rule="nonzero"/></g></g></g><g clip-path="url(#9d7eeb7409)"><g clip-path="url(#e8554b56e0)"><g clip-path="url(#3fa0e39982)"><path stroke-linecap="round" transform="matrix(0.109457, 0.000764165, -0.000764165, 0.109457, -8.920971, -11.219259)" fill="none" stroke-linejoin="round" d="M 291.989179 128.011756 L 292.003098 176.011478 L 249.987841 200.001369 L 250.009609 152.001398 Z M 291.989179 128.011756 " stroke="#2a0833" stroke-width="3.5" stroke-opacity="1" stroke-miterlimit="4"/></g></g></g><g clip-path="url(#8d8b5c4c5b)"><g clip-path="url(#aab747d8a3)"><g clip-path="url(#bb0b8637d2)"><path fill="#5c1f6b" d="M 16.75 12.164062 L 17.847656 11.515625 L 17.800781 18.085938 L 12.308594 21.109375 Z M 16.75 12.164062 " fill-opacity="1" fill-rule="nonzero"/></g></g></g><g clip-path="url(#83ad577f49)"><g clip-path="url(#1c6e83acbf)"><g clip-path="url(#562b8f7c99)"><path stroke-linecap="round" transform="matrix(0.109457, 0.000764165, -0.000764165, 0.109457, -8.920971, -11.219259)" fill="none" stroke-linejoin="round" d="M 236.010576 211.98292 L 245.996945 205.98906 L 245.987766 266.015663 L 196.006282 293.986806 Z M 236.010576 211.98292 " stroke="#2a0833" stroke-width="3.5" stroke-opacity="1" stroke-miterlimit="4"/></g></g></g><g clip-path="url(#12d88fc12b)"><g clip-path="url(#862e857312)"><g clip-path="url(#dccf9a20db)"><path stroke-linecap="round" transform="matrix(0.109457, 0.000764165, -0.000764165, 0.109457, -8.920971, -11.219259)" fill-opacity="1" fill="#a45ca9" fill-rule="nonzero" stroke-linejoin="round" d="M 194.017336 188.008527 L 236.010576 211.98292 L 196.006282 293.986806 L 154.013042 270.012413 Z M 194.017336 188.008527 " stroke="#2a0833" stroke-width="3.5" stroke-opacity="1" stroke-miterlimit="4"/></g></g></g><g clip-path="url(#ad1aa28de6)"><g clip-path="url(#6fbb1dfd71)"><g clip-path="url(#0eb8c6a023)"><path fill="#a45ca9" d="M 13.269531 8.859375 L 17.847656 11.515625 L 16.75 12.164062 L 12.171875 9.507812 Z M 13.269531 8.859375 " fill-opacity="1" fill-rule="nonzero"/></g></g></g><g clip-path="url(#e3d7e6d5cc)"><g clip-path="url(#4b62e6fb08)"><g clip-path="url(#2c89030983)"><path stroke-linecap="round" transform="matrix(0.109457, 0.000764165, -0.000764165, 0.109457, -8.920971, -11.219259)" fill="none" stroke-linejoin="round" d="M 204.003705 182.014667 L 245.996945 205.98906 L 236.010576 211.98292 L 194.017336 188.008527 Z M 204.003705 182.014667 " stroke="#2a0833" stroke-width="3.5" stroke-opacity="1" stroke-miterlimit="4"/></g></g></g><g clip-path="url(#fa820d2b0c)"><g clip-path="url(#353441da05)"><g clip-path="url(#dcaf725b01)"><path stroke-linecap="round" transform="matrix(0.109457, 0.000764165, -0.000764165, 0.109457, -8.920971, -11.219259)" fill-opacity="1" fill="#7b3687" fill-rule="nonzero" stroke-linejoin="round" d="M 154.013042 270.012413 L 196.006282 293.986806 L 195.984515 341.986777 L 153.991275 318.012383 Z M 154.013042 270.012413 " stroke="#2a0833" stroke-width="3.5" stroke-opacity="1" stroke-miterlimit="4"/></g></g></g><g clip-path="url(#3d27d9ad3c)"><g clip-path="url(#2d3c3ce823)"><g clip-path="url(#19a1ca7ece)"><path stroke-linecap="round" transform="matrix(0.109457, 0.000764165, -0.000764165, 0.109457, -8.920971, -11.219259)" fill-opacity="1" fill="#7b3687" fill-rule="nonzero" stroke-linejoin="round" d="M 253.991076 206.004625 L 263.989784 212.001711 L 303.996921 293.982316 L 254.017333 265.995293 Z M 253.991076 206.004625 " stroke="#2a0833" stroke-width="3.5" stroke-opacity="1" stroke-miterlimit="4"/></g></g></g><g clip-path="url(#e63439e54d)"><g clip-path="url(#5977e6995b)"><g clip-path="url(#a0d474f396)"><path stroke-linecap="round" transform="matrix(0.109457, 0.000764165, -0.000764165, 0.109457, -8.920971, -11.219259)" fill-opacity="1" fill="#a45ca9" fill-rule="nonzero" stroke-linejoin="round" d="M 263.989784 212.001711 L 302.007975 188.004037 L 346.012178 269.992425 L 303.996921 293.982316 Z M 263.989784 212.001711 " stroke="#2a0833" stroke-width="3.5" stroke-opacity="1" stroke-miterlimit="4"/></g></g></g><g clip-path="url(#76c73dd9eb)"><g clip-path="url(#85662adaed)"><g clip-path="url(#a3a718f30a)"><path fill="#a45ca9" d="M 18.722656 11.523438 L 23.121094 8.925781 L 23.992188 9.589844 L 19.8125 12.1875 Z M 18.722656 11.523438 " fill-opacity="1" fill-rule="nonzero"/></g></g></g><g clip-path="url(#e3c09f7d23)"><g clip-path="url(#8670b81172)"><g clip-path="url(#f548c6392a)"><path stroke-linecap="round" transform="matrix(0.109457, 0.000764165, -0.000764165, 0.109457, -8.920971, -11.219259)" fill="none" stroke-linejoin="round" d="M 253.991076 206.004625 L 294.007675 181.992999 L 302.007975 188.004037 L 263.989784 212.001711 Z M 253.991076 206.004625 " stroke="#2a0833" stroke-width="3.5" stroke-opacity="1" stroke-miterlimit="4"/></g></g></g><g clip-path="url(#ed34bb7d50)"><g clip-path="url(#8590349d71)"><g clip-path="url(#b44ad2d086)"><path fill="#5c1f6b" d="M 24.128906 21.191406 L 28.746094 18.597656 L 28.707031 23.851562 L 24.09375 26.449219 Z M 24.128906 21.191406 " fill-opacity="1" fill-rule="nonzero"/></g></g></g><g clip-path="url(#2ad4c9efdf)"><g clip-path="url(#cacc73053e)"><g clip-path="url(#b518bdd557)"><path stroke-linecap="round" transform="matrix(0.109457, 0.000764165, -0.000764165, 0.109457, -8.920971, -11.219259)" fill="none" stroke-linejoin="round" d="M 303.996921 293.982316 L 346.012178 269.992425 L 345.99041 317.992396 L 304.011088 342.017724 Z M 303.996921 293.982316 " stroke="#2a0833" stroke-width="3.5" stroke-opacity="1" stroke-miterlimit="4"/></g></g></g><g clip-path="url(#6cd1a6581d)"><g clip-path="url(#3133c36585)"><g clip-path="url(#60d20f76a9)"><path fill="#7b3687" d="M 18.234375 18.964844 L 23.25 21.625 L 18.195312 24.4375 L 13.179688 21.554688 Z M 18.234375 18.964844 " fill-opacity="1" fill-rule="nonzero"/></g></g></g><g clip-path="url(#4a7f87e749)"><g clip-path="url(#2066873ec0)"><g clip-path="url(#64d0275f18)"><path stroke-linecap="round" transform="matrix(0.109457, 0.000764165, -0.000764165, 0.109457, -8.920971, -11.219259)" fill="none" stroke-linejoin="round" d="M 250.004952 274.017327 L 295.995257 297.999503 L 249.997136 324.015706 L 203.99263 297.999436 Z M 250.004952 274.017327 " stroke="#2a0833" stroke-width="3.5" stroke-opacity="1" stroke-miterlimit="4"/></g></g></g><g clip-path="url(#a4099b1d3b)"><g clip-path="url(#840acd3eb5)"><g clip-path="url(#a97b6ce4ca)"><path fill="#7b3687" d="M 13.179688 21.554688 L 18.195312 24.4375 L 18.160156 29.691406 L 13.144531 26.808594 Z M 13.179688 21.554688 " fill-opacity="1" fill-rule="nonzero"/></g></g></g><g clip-path="url(#3447c99069)"><g clip-path="url(#4251c0c28c)"><g clip-path="url(#5f15820231)"><path stroke-linecap="round" transform="matrix(0.109457, 0.000764165, -0.000764165, 0.109457, -8.920971, -11.219259)" fill="none" stroke-linejoin="round" d="M 203.99263 297.999436 L 249.997136 324.015706 L 250.011055 372.015427 L 204.006549 345.999158 Z M 203.99263 297.999436 " stroke="#2a0833" stroke-width="3.5" stroke-opacity="1" stroke-miterlimit="4"/></g></g></g><g clip-path="url(#e414973b23)"><g clip-path="url(#8861b4bf18)"><g clip-path="url(#9a3ec2cb4a)"><path fill="#5c1f6b" d="M 18.195312 24.4375 L 23.25 21.625 L 23.214844 26.878906 L 18.160156 29.691406 Z M 18.195312 24.4375 " fill-opacity="1" fill-rule="nonzero"/></g></g></g><g clip-path="url(#7d00c6612e)"><g clip-path="url(#75dfef81cf)"><g clip-path="url(#7fc4907fba)"><path stroke-linecap="round" transform="matrix(0.109457, 0.000764165, -0.000764165, 0.109457, -8.920971, -11.219259)" fill="none" stroke-linejoin="round" d="M 249.997136 324.015706 L 295.995257 297.999503 L 296.009176 345.999224 L 250.011055 372.015427 Z M 249.997136 324.015706 " stroke="#2a0833" stroke-width="3.5" stroke-opacity="1" stroke-miterlimit="4"/></g></g></g><g clip-path="url(#8230566ca9)"><g clip-path="url(#7eb54b93bf)"><g clip-path="url(#d439427378)"><path fill="#a45ca9" d="M 7.25 24.359375 L 11.828125 27.019531 L 7.214844 29.613281 L 2.632812 26.953125 Z M 7.25 24.359375 " fill-opacity="1" fill-rule="nonzero"/></g></g></g><g clip-path="url(#8ea4cf1533)"><g clip-path="url(#c7b2fec882)"><g clip-path="url(#24effac891)"><path stroke-linecap="round" transform="matrix(0.109457, 0.000764165, -0.000764165, 0.109457, -8.920971, -11.219259)" fill="none" stroke-linejoin="round" d="M 150.000379 324.000074 L 191.993868 348.010154 L 150.014297 371.999796 L 107.985122 347.989966 Z M 150.000379 324.000074 " stroke="#2a0833" stroke-width="3.5" stroke-opacity="1" stroke-miterlimit="4"/></g></g></g><g clip-path="url(#a029b8ded9)"><g clip-path="url(#63e94239fd)"><g clip-path="url(#a943ac53c5)"><path fill="#7b3687" d="M 2.632812 26.953125 L 7.214844 29.613281 L 7.175781 34.867188 L 2.597656 32.207031 Z M 2.632812 26.953125 " fill-opacity="1" fill-rule="nonzero"/></g></g></g><g clip-path="url(#48b7f328cd)"><g clip-path="url(#553ec034ba)"><g clip-path="url(#409042c1e7)"><path stroke-linecap="round" transform="matrix(0.109457, 0.000764165, -0.000764165, 0.109457, -8.920971, -11.219259)" fill="none" stroke-linejoin="round" d="M 107.985122 347.989966 L 150.014297 371.999796 L 149.99253 419.999766 L 107.999041 395.989687 Z M 107.985122 347.989966 " stroke="#2a0833" stroke-width="3.5" stroke-opacity="1" stroke-miterlimit="4"/></g></g></g><g clip-path="url(#6868a9030e)"><g clip-path="url(#9dd6c7d383)"><g clip-path="url(#261fae6dfc)"><path fill="#5c1f6b" d="M 11.828125 27.019531 L 11.792969 32.273438 L 7.175781 34.867188 L 7.214844 29.613281 Z M 11.828125 27.019531 " fill-opacity="1" fill-rule="nonzero"/></g></g></g><g clip-path="url(#1e69027092)"><g clip-path="url(#f3daac2afd)"><g clip-path="url(#5a33d40a2e)"><path stroke-linecap="round" transform="matrix(0.109457, 0.000764165, -0.000764165, 0.109457, -8.920971, -11.219259)" fill="none" stroke-linejoin="round" d="M 191.993868 348.010154 L 192.007786 396.009875 L 149.99253 419.999766 L 150.014297 371.999796 Z M 191.993868 348.010154 " stroke="#2a0833" stroke-width="3.5" stroke-opacity="1" stroke-miterlimit="4"/></g></g></g><g clip-path="url(#f9da499284)"><g clip-path="url(#ad7eeb11d1)"><g clip-path="url(#7438788e44)"><path stroke-linecap="round" transform="matrix(0.109457, 0.000764165, -0.000764165, 0.109457, -8.920971, -11.219259)" fill-opacity="1" fill="#a45ca9" fill-rule="nonzero" stroke-linejoin="round" d="M 349.993645 323.995651 L 391.987134 348.005731 L 350.007563 371.995373 L 308.014074 347.985294 Z M 349.993645 323.995651 " stroke="#2a0833" stroke-width="3.5" stroke-opacity="1" stroke-miterlimit="4"/></g></g></g><g clip-path="url(#10a92ce1b0)"><g clip-path="url(#302a69117a)"><g clip-path="url(#1d626a13e9)"><path fill="#7b3687" d="M 24.527344 27.105469 L 29.105469 29.765625 L 29.066406 35.019531 L 24.488281 32.359375 Z M 24.527344 27.105469 " fill-opacity="1" fill-rule="nonzero"/></g></g></g><g clip-path="url(#e08a9e4890)"><g clip-path="url(#422ecbce9e)"><g clip-path="url(#4b986cc119)"><path stroke-linecap="round" transform="matrix(0.109457, 0.000764165, -0.000764165, 0.109457, -8.920971, -11.219259)" fill="none" stroke-linejoin="round" d="M 308.014074 347.985294 L 350.007563 371.995373 L 349.985796 419.995344 L 307.992306 395.985264 Z M 308.014074 347.985294 " stroke="#2a0833" stroke-width="3.5" stroke-opacity="1" stroke-miterlimit="4"/></g></g></g><g clip-path="url(#bf7042cd52)"><g clip-path="url(#d69db0cba1)"><g clip-path="url(#553030b2a6)"><path fill="#5c1f6b" d="M 33.71875 27.171875 L 33.683594 32.425781 L 29.066406 35.019531 L 29.105469 29.765625 Z M 33.71875 27.171875 " fill-opacity="1" fill-rule="nonzero"/></g></g></g><g clip-path="url(#26ec0a98df)"><g clip-path="url(#752f5020ac)"><g clip-path="url(#ff43aa642e)"><path stroke-linecap="round" transform="matrix(0.109457, 0.000764165, -0.000764165, 0.109457, -8.920971, -11.219259)" fill="none" stroke-linejoin="round" d="M 391.987134 348.005731 L 392.001052 396.005452 L 349.985796 419.995344 L 350.007563 371.995373 Z M 391.987134 348.005731 " stroke="#2a0833" stroke-width="3.5" stroke-opacity="1" stroke-miterlimit="4"/></g></g></g></svg>